<svg
  width="180"
  height="180"
  viewBox="0 0 180 180"
  fill="none"
  xmlns="http://www.w3.org/2000/svg"
>
  <g clip-path="url(#a)">
    <path
      fill="url(#b)"
      d="M90 180c49.706 0 90-40.294 90-90S139.706 0 90 0 0 40.294 0 90s40.294 90 90 90Z"
    />
    <path
      fill="#fff"
      d="M109.922 50.102c-11.87 0-21.084 11.87-24.653 21.748V50.6c-4.898 1.66-11.04 2.325-17.681 2.325-3.403 0-6.973-.166-10.542-.498v3.569c9.878 0 12.949 4.814 12.949 15.024v53.209c0 9.463-3.569 12.202-12.949 12.202V140c3.901-.166 12.285-.664 20.088-.664 10.542 0 20.918.498 26.147.664v-3.569c-11.206 0-18.013-2.905-18.013-13.945V86.46c0-12.617 9.38-31.958 23.658-31.958 1.494 0 2.739.498 3.569 1.66-3.071 1.91-5.81 4.98-5.81 9.214 0 5.644 4.316 8.799 9.047 8.799 5.977 0 9.712-4.897 9.712-10.708 0-7.305-6.309-13.364-15.522-13.364Z"
    />
  </g>
  <defs>
    <linearGradient
      id="b"
      x1="180"
      x2="0"
      y1="180"
      y2="0"
      gradientUnits="userSpaceOnUse"
    >
      <stop stop-color="#ECD078" />
      <stop offset=".333" stop-color="#D95B43" />
      <stop offset=".667" stop-color="#C02942" />
      <stop offset="1" stop-color="#542437" />
    </linearGradient>
    <clipPath id="a"><path fill="#fff" d="M0 0h180v180H0z" /></clipPath>
  </defs>
</svg>
