<svg
  xmlns="http://www.w3.org/2000/svg"
  xmlns:xlink="http://www.w3.org/1999/xlink"
>
  <symbol viewBox="0 -960 960 960" id="search">
    <path
      d="M784-120 532-372q-30 24-69 38t-83 14q-109 0-184.5-75.5T120-580q0-109 75.5-184.5T380-840q109 0 184.5 75.5T640-580q0 44-14 83t-38 69l252 252-56 56ZM380-400q75 0 127.5-52.5T560-580q0-75-52.5-127.5T380-760q-75 0-127.5 52.5T200-580q0 75 52.5 127.5T380-400Z"
    />
  </symbol>
  <use xlink:href="#search" width="960" height="960" x="0" y="0"></use>
  <view id="search-view" viewBox="0 0 960 960" />

  <symbol viewBox="0 -960 960 960" id="close">
    <path
      d="m256-200-56-56 224-224-224-224 56-56 224 224 224-224 56 56-224 224 224 224-56 56-224-224-224 224Z"
    />
  </symbol>
  <use xlink:href="#close" width="960" height="960" x="0" y="960"></use>
  <view id="close-view" viewBox="0 960 960 960" />
</svg>
